<?xml version="1.0" encoding="utf-8"?>
<!-- Generator: Adobe Illustrator 24.1.0, SVG Export Plug-In . SVG Version: 6.00 Build 0)  -->
<svg version="1.1" id="Camada_1" xmlns="http://www.w3.org/2000/svg" xmlns:xlink="http://www.w3.org/1999/xlink" x="0px" y="0px"
	 width="20px" height="20px" viewBox="0 0 20 20" style="enable-background:new 0 0 20 20;" xml:space="preserve">
<style type="text/css">
	.st0{fill:#7F7F7F;}
</style>
<g id="Grupo_153" transform="translate(-61.2 -56.3)">
	<path id="Caminho_766" class="st0" d="M61.2,57.4c0-0.1,0-0.2,0.2-0.2c1.1-0.1,2.7-0.1,4.3-0.1c4.7,0,6.7,2.6,6.7,5.8
		c0,4.3-3.1,6.1-6.9,6.1c-0.6,0-0.9,0-1.3,0v6.5c0,0.1-0.1,0.2-0.2,0.2h-2.6c-0.1,0-0.2-0.1-0.2-0.2L61.2,57.4L61.2,57.4z
		 M64.2,66.3c0.4,0,0.7,0,1.4,0c2,0,3.8-0.7,3.8-3.4c0-2.1-1.3-3.2-3.6-3.2c-0.7,0-1.3,0-1.6,0.1L64.2,66.3L64.2,66.3z"/>
	<path id="Caminho_767" class="st0" d="M74.2,65.2c-0.1,0-0.1-0.1-0.1-0.2v-2.3c0-0.1,0-0.2,0.1-0.2h1.6v-0.9c0-0.9,0.2-1.8,0.6-2.7
		c0.6-1.4,2.1-2.2,3.6-2.1c0.4,0,0.8,0,1.1,0.1c0.1,0.1,0.2,0.1,0.2,0.2v2.2c0,0.1-0.1,0.2-0.2,0.2c-0.2-0.1-0.5-0.1-0.7-0.1
		c-1,0-1.5,0.7-1.5,2v0.9H81c0.1,0,0.2,0,0.2,0.1v2.3c0,0.1,0,0.2-0.2,0.2h-2.2v10.4c0,0.1,0,0.2-0.2,0.2H76c-0.1,0-0.2-0.1-0.2-0.2
		c0,0,0,0,0,0V65.1L74.2,65.2L74.2,65.2z"/>
</g>
</svg>
