<?xml version="1.0" encoding="utf-8"?>
<!-- Generator: Adobe Illustrator 24.1.0, SVG Export Plug-In . SVG Version: 6.00 Build 0)  -->
<svg version="1.1" id="Camada_1" xmlns="http://www.w3.org/2000/svg" xmlns:xlink="http://www.w3.org/1999/xlink" x="0px" y="0px"
	 width="20px" height="20px" viewBox="0 0 20 20" style="enable-background:new 0 0 20 20;" xml:space="preserve">
<style type="text/css">
	.st0{fill:#7F7F7F;}
</style>
<path id="LinkedIn" class="st0" d="M20,12.2v7.4h-4.3v-6.9c0-1.7-0.6-2.9-2.2-2.9c-1,0-1.9,0.6-2.2,1.6c-0.1,0.3-0.2,0.7-0.1,1v7.2
	H6.9c0,0,0.1-11.7,0-12.9h4.3v1.8c0,0,0,0,0,0h0v0c0.8-1.4,2.3-2.2,3.9-2.1C17.9,6.4,20,8.2,20,12.2z M2.4,0.4
	C1.2,0.3,0.1,1.2,0,2.5s0.8,2.3,2,2.4c0.1,0,0.2,0,0.3,0h0c1.2,0.1,2.3-0.8,2.4-2S4,0.5,2.8,0.4C2.7,0.4,2.5,0.4,2.4,0.4z M0.3,19.6
	h4.3V6.7H0.3V19.6z"/>
</svg>
