<?xml version="1.0" encoding="utf-8"?>
<!-- Generator: Adobe Illustrator 24.1.0, SVG Export Plug-In . SVG Version: 6.00 Build 0)  -->
<svg version="1.1" id="Camada_1" xmlns="http://www.w3.org/2000/svg" xmlns:xlink="http://www.w3.org/1999/xlink" x="0px" y="0px"
	 width="20px" height="20px" viewBox="0 0 20 20" style="enable-background:new 0 0 20 20;" xml:space="preserve">
<style type="text/css">
	.st0{fill:#7F7F7F;}
</style>
<path id="YouTube" class="st0" d="M15.8,14.6h-1.1V14c0-0.3,0.2-0.5,0.5-0.5h0.1c0.3,0,0.5,0.2,0.5,0.5L15.8,14.6z M11.6,13.3
	c-0.3,0-0.5,0.2-0.5,0.4v3.1c0.1,0.3,0.3,0.5,0.6,0.4c0.2,0,0.3-0.2,0.4-0.4v-3.1C12.1,13.4,11.9,13.2,11.6,13.3z M18.3,11.5v5.9
	c0,1.5-1.3,2.6-2.7,2.6H4.4c-1.5,0-2.7-1.1-2.7-2.6v-5.9c0-1.5,1.3-2.6,2.7-2.6h11.2C17.1,8.9,18.3,10.1,18.3,11.5L18.3,11.5z
	 M5.1,18.1v-6.2h1.4v-0.9H2.8v0.9H4v6.2L5.1,18.1z M9.3,12.8H8.2v3.3c0,0.3,0,0.5,0,0.8c-0.1,0.3-0.5,0.5-0.7,0c0-0.3,0-0.5,0-0.8
	v-3.3H6.3v3.3c0,0.5,0,0.9,0,1.1c0,0.3,0,0.7,0.3,0.9c0.7,0.3,1.4,0,1.8-0.6v0.7h0.9L9.3,12.8L9.3,12.8z M13,16.6v-2.8
	c0-1.1-0.8-1.7-1.9-0.8v-2.1H10V18l1,0l0.1-0.4C12.3,18.7,13,17.9,13,16.6L13,16.6z M16.6,16.2h-0.9c0,0,0,0.1,0,0.1v0.5
	c0,0.3-0.2,0.5-0.5,0.5h-0.2c-0.3,0-0.5-0.2-0.5-0.5v-1.3h2v-0.7c0-0.5,0-0.9-0.1-1.4c-0.1-1-1.5-1.1-2.2-0.6
	c-0.2,0.2-0.4,0.4-0.5,0.7c-0.1,0.4-0.2,0.8-0.1,1.2v1.6C13.7,19,17,18.6,16.6,16.2L16.6,16.2z M12.2,7.3c0.1,0.1,0.2,0.3,0.3,0.4
	c0.1,0.1,0.3,0.1,0.5,0.1c0.2,0,0.3,0,0.4-0.1c0.1-0.1,0.3-0.3,0.3-0.4l0,0.5H15V2.2h-1v4.3c0,0.2-0.2,0.4-0.4,0.4
	c-0.2,0-0.4-0.2-0.4-0.4V2.2h-1.1v3.7c0,0.5,0,0.8,0,0.9C12.1,7,12.1,7.1,12.2,7.3L12.2,7.3z M8.3,4.2c0-0.4,0-0.8,0.1-1.2
	c0.2-0.6,0.7-1,1.3-1c0.3,0,0.5,0.1,0.8,0.2c0.2,0.1,0.4,0.3,0.5,0.4c0.1,0.2,0.2,0.4,0.2,0.6c0.1,0.3,0.1,0.6,0.1,0.9v1.4
	c0,0.4,0,0.7-0.1,1.1c0,0.2-0.1,0.5-0.3,0.7c-0.1,0.2-0.3,0.4-0.5,0.5c-0.2,0.1-0.5,0.2-0.7,0.1c-0.3,0-0.5,0-0.7-0.1
	C8.9,7.6,8.7,7.5,8.6,7.3C8.5,7.1,8.4,6.9,8.3,6.7C8.3,6.4,8.3,6,8.3,5.6L8.3,4.2L8.3,4.2z M9.3,6.4c0,0.3,0.2,0.5,0.5,0.6
	c0.3,0,0.5-0.2,0.6-0.5c0,0,0-0.1,0-0.1V3.4c0-0.3-0.2-0.5-0.5-0.6C9.6,2.8,9.3,3,9.3,3.3c0,0,0,0.1,0,0.1V6.4z M5.7,7.8h1.2V3.6
	L8.4,0H7L6.3,2.7L5.5,0H4.2l1.5,3.6V7.8z"/>
</svg>
