<svg id="_253aac367fe14c630a7b4fe94f54d906" data-name="253aac367fe14c630a7b4fe94f54d906" xmlns="http://www.w3.org/2000/svg" width="19.066" height="19.066" viewBox="0 0 19.066 19.066">
  <path id="Caminho_769" data-name="Caminho 769" d="M19.533,29.066a9.511,9.511,0,1,0-3.712-.751A9.491,9.491,0,0,0,19.533,29.066Zm0-17.973a8.44,8.44,0,1,1-8.44,8.44A8.449,8.449,0,0,1,19.533,11.093Z" transform="translate(-10 -10)" fill="#fff"/>
  <path id="Caminho_770" data-name="Caminho 770" d="M355.986,230.5l4.327,4.63a.57.57,0,0,1,.158.4.561.561,0,0,1-.158.4l-4.327,4.63a.725.725,0,0,1-.947.074.579.579,0,0,1-.241-.463.553.553,0,0,1,.158-.387l3.971-4.251-3.971-4.251a.561.561,0,0,1-.158-.389.579.579,0,0,1,.241-.463.728.728,0,0,1,.947.076Z" transform="translate(-348.112 -226.001)" fill="#fff"/>
</svg>
