<?xml version="1.0" encoding="utf-8"?>
<!-- Generator: Adobe Illustrator 24.1.0, SVG Export Plug-In . SVG Version: 6.00 Build 0)  -->
<svg version="1.1" id="Layer_1" xmlns="http://www.w3.org/2000/svg" xmlns:xlink="http://www.w3.org/1999/xlink" x="0px" y="0px" width="15px" height="15px"
	 viewBox="0 0 8.9 15" style="enable-background:new 0 0 8.9 15;" xml:space="preserve">
<style type="text/css">
	.st0{fill:#FFFFFF;}
</style>
<g>
	<g>
		<path class="st0" d="M0,7.5c0,0.2,0.1,0.4,0.2,0.6l6.7,6.7C7.1,15,7.3,15,7.5,15c0.2,0,0.4-0.1,0.6-0.2l0.5-0.5
			c0.2-0.2,0.2-0.4,0.2-0.6s-0.1-0.4-0.2-0.6L3,7.5l5.6-5.6c0.3-0.3,0.3-0.8,0-1.2L8.1,0.2C7.9,0.1,7.7,0,7.5,0S7.1,0.1,6.9,0.2
			L0.2,6.9C0.1,7.1,0,7.3,0,7.5z"/>
	</g>
</g>
</svg>
