<?xml version="1.0" encoding="utf-8"?>
<!-- Generator: Adobe Illustrator 24.1.0, SVG Export Plug-In . SVG Version: 6.00 Build 0)  -->
<svg version="1.1" id="Layer_1" xmlns="http://www.w3.org/2000/svg" xmlns:xlink="http://www.w3.org/1999/xlink" x="0px" y="0px" width="15px" height="15px"
	 viewBox="0 0 8.9 15" style="enable-background:new 0 0 8.9 15;" xml:space="preserve">
<style type="text/css">
	.st0{fill:#FFFFFF;}
</style>
<g>
	<g>
		<path class="st0" d="M8.7,6.9L2,0.2C1.8,0.1,1.6,0,1.4,0C1.2,0,1,0.1,0.8,0.2L0.3,0.7C0,1.1,0,1.6,0.3,1.9l5.6,5.6l-5.6,5.6
			c-0.1,0.2-0.2,0.4-0.2,0.6s0,0.4,0.2,0.6l0.5,0.5C1,14.9,1.2,15,1.4,15c0.2,0,0.4,0,0.6-0.2l6.7-6.7c0.1-0.2,0.2-0.4,0.2-0.6
			S8.8,7.1,8.7,6.9z"/>
	</g>
</g>
</svg>
