<svg id="aadobe-portfolio-seeklogo.com" xmlns="http://www.w3.org/2000/svg" width="15" height="15" viewBox="0 0 13.056 12.729">
  <rect id="XMLID_14_" width="12.042" height="12.042" transform="translate(1.014 0.687)" fill="#919191"/>
  <path id="XMLID_1_" d="M.544.544H12.512V12.185H.544ZM0,12.729H13.056V0H0Z" fill="#878787"/>
  <g id="XMLID_21_" transform="translate(3.329 3.063)">
    <path id="XMLID_36_" d="M61.2,57.687c0-.033.011-.06.054-.06.343-.016.843-.027,1.365-.027,1.469,0,2.111.805,2.111,1.839,0,1.349-.974,1.926-2.171,1.926-.2,0-.272-.011-.413-.011v2.04c0,.044-.016.06-.06.06h-.821c-.044,0-.06-.016-.06-.06V57.687Zm.947,2.818c.125.011.218.011.43.011.62,0,1.2-.218,1.2-1.061,0-.675-.413-1.017-1.121-1.017-.212,0-.413.011-.506.016L62.147,60.5Z" transform="translate(-61.2 -57.529)" fill="#565656"/>
    <path id="XMLID_34_" d="M135.844,58.9c-.033,0-.044-.016-.044-.06v-.724c0-.044.011-.054.044-.054h.49v-.272a1.853,1.853,0,0,1,.174-.843,1.132,1.132,0,0,1,1.121-.647,1.054,1.054,0,0,1,.359.044c.044.016.054.033.054.076v.7c0,.044-.016.06-.06.054a1.188,1.188,0,0,0-.234-.027c-.3,0-.457.218-.457.642v.272h.691c.044,0,.054.011.054.044v.729c0,.044-.011.054-.054.06h-.691v3.269c0,.033-.011.06-.06.06H136.4a.054.054,0,0,1-.06-.06V58.895l-.5.005Z" transform="translate(-131.742 -56.3)" fill="#565656"/>
  </g>
</svg>
