<svg xmlns="http://www.w3.org/2000/svg" width="15" height="15" viewBox="0 0 13.509 12.908">
  <path id="LinkedIn" d="M18.508,14.914v4.994h-2.9v-4.66c0-1.171-.419-1.969-1.467-1.969a1.584,1.584,0,0,0-1.485,1.059,1.981,1.981,0,0,0-.1.706v4.864h-2.9s.039-7.892,0-8.71h2.9v1.235l-.019.028h.019v-.028a2.875,2.875,0,0,1,2.61-1.439C17.08,10.994,18.508,12.239,18.508,14.914ZM6.639,7A1.509,1.509,0,1,0,6.6,10.01H6.62A1.51,1.51,0,1,0,6.639,7ZM5.172,19.908h2.9V11.2h-2.9Z" transform="translate(-5 -7)" fill="#fff" opacity="0.5"/>
</svg>
