<svg xmlns="http://www.w3.org/2000/svg" width="15" height="15" viewBox="0 0 12.908 12.908">
  <path id="ShareThis" d="M9.556,11.454c0,.044-.01.086-.013.13L14.168,13.9a2.254,2.254,0,0,1,1.462-.545,2.278,2.278,0,1,1-2.278,2.278c0-.045.01-.086.013-.13L8.74,13.187a2.279,2.279,0,1,1,0-3.468l4.625-2.312c0-.044-.013-.086-.013-.131A2.278,2.278,0,1,1,15.63,9.556a2.252,2.252,0,0,1-1.462-.546L9.543,11.323C9.546,11.367,9.556,11.409,9.556,11.454Z" transform="translate(-5 -5)" fill="#fff" opacity="0.5"/>
</svg>
