<svg xmlns="http://www.w3.org/2000/svg" width="15" height="15" viewBox="0 0 10.757 12.908">
  <path id="YouTube" d="M21.6,14.442H20.89l0-.411a.334.334,0,0,1,.334-.332h.045a.334.334,0,0,1,.334.332Zm-2.657-.882a.3.3,0,0,0-.327.269v2a.334.334,0,0,0,.654,0v-2A.3.3,0,0,0,18.942,13.56Zm4.315-1.119v3.807a1.717,1.717,0,0,1-1.76,1.66H14.26a1.717,1.717,0,0,1-1.76-1.66V12.441a1.717,1.717,0,0,1,1.76-1.661H21.5A1.718,1.718,0,0,1,23.257,12.441Zm-8.514,4.22v-4.01h.9v-.594l-2.391,0v.584l.747,0v4.021Zm2.689-3.413h-.748V15.39a3.8,3.8,0,0,1,0,.519c-.061.166-.334.342-.441.018a4.261,4.261,0,0,1,0-.522l0-2.156h-.744l0,2.122c0,.325-.007.568,0,.678.018.195.012.422.192.551a.9.9,0,0,0,1.143-.383v.442h.6V13.248ZM19.825,15.7l0-1.782c0-.679-.509-1.086-1.2-.537l0-1.325H17.88l0,4.574.614-.009.056-.285C19.332,17.058,19.826,16.564,19.825,15.7Zm2.341-.236-.561,0c0,.022,0,.048,0,.076v.313a.306.306,0,0,1-.306.3h-.11a.306.306,0,0,1-.307-.3v-.823h1.284V14.55a7.626,7.626,0,0,0-.038-.908c-.092-.639-.988-.74-1.441-.413a.844.844,0,0,0-.314.423,2.374,2.374,0,0,0-.1.754v1.063C20.276,17.233,22.421,16.984,22.165,15.464Zm-2.877-5.77a.509.509,0,0,0,.18.227.521.521,0,0,0,.306.085.476.476,0,0,0,.287-.089.686.686,0,0,0,.21-.268l-.014.293h.834V6.4h-.656V9.156a.273.273,0,0,1-.547,0V6.4H19.2V8.788c0,.3.005.508.014.611A1.038,1.038,0,0,0,19.289,9.695Zm-2.527-2a2.95,2.95,0,0,1,.085-.8.854.854,0,0,1,.872-.635,1.035,1.035,0,0,1,.5.112.828.828,0,0,1,.32.291,1.147,1.147,0,0,1,.154.369,2.944,2.944,0,0,1,.042.581v.9a4.879,4.879,0,0,1-.039.724,1.15,1.15,0,0,1-.164.431.781.781,0,0,1-.321.295,1.024,1.024,0,0,1-.452.1,1.256,1.256,0,0,1-.482-.081.662.662,0,0,1-.308-.246,1.091,1.091,0,0,1-.157-.4,3.831,3.831,0,0,1-.046-.7V7.692ZM17.415,9.1a.333.333,0,1,0,.662,0V7.213a.333.333,0,1,0-.662,0Zm-2.307.953h.787V7.334L16.825,5h-.86l-.494,1.73L14.969,5h-.851l.989,2.335Z" transform="translate(-12.5 -5)" fill="#fff" opacity="0.5"/>
</svg>
