<svg xmlns="http://www.w3.org/2000/svg" width="20" height="20" viewBox="0 0 18.968 17.838">
  <g id="Grupo_153" data-name="Grupo 153" transform="translate(-61.2 -56.3)">
    <path id="Caminho_766" data-name="Caminho 766" d="M61.2,57.862c0-.1.033-.18.164-.18,1.032-.049,2.539-.082,4.111-.082,4.423,0,6.355,2.424,6.355,5.536,0,4.062-2.932,5.8-6.536,5.8-.606,0-.819-.033-1.245-.033v6.143c0,.131-.049.18-.18.18H61.4c-.131,0-.18-.049-.18-.18V57.862Zm2.85,8.485c.377.033.655.033,1.294.033,1.867,0,3.62-.655,3.62-3.194,0-2.031-1.245-3.063-3.374-3.063-.639,0-1.245.033-1.523.049v6.175Z" transform="translate(0 -1.087)" fill="#fff"/>
    <path id="Caminho_767" data-name="Caminho 767" d="M135.931,64.13c-.1,0-.131-.049-.131-.18V61.771c0-.131.033-.164.131-.164h1.474v-.819a5.58,5.58,0,0,1,.524-2.539A3.409,3.409,0,0,1,141.3,56.3a3.172,3.172,0,0,1,1.081.131c.131.049.164.1.164.229v2.113c0,.131-.049.18-.18.164a3.579,3.579,0,0,0-.7-.082c-.917,0-1.376.655-1.376,1.933v.819h2.08c.131,0,.164.033.164.131v2.195c0,.131-.033.164-.164.18h-2.08v9.844c0,.1-.033.18-.18.18H137.6a.163.163,0,0,1-.18-.18V64.113h-1.491Z" transform="translate(-62.38 0)" fill="#fff"/>
  </g>
</svg>
