<svg xmlns="http://www.w3.org/2000/svg" width="20" height="20" viewBox="0 0 18.667 17.838">
  <path id="LinkedIn" d="M23.667,17.936v6.9h-4V18.4c0-1.618-.579-2.722-2.027-2.722a2.189,2.189,0,0,0-2.053,1.464,2.738,2.738,0,0,0-.133.976v6.722h-4s.054-10.906,0-12.036h4v1.706c-.008.013-.019.027-.026.039h.026v-.039a3.973,3.973,0,0,1,3.606-1.989C21.693,12.519,23.667,14.239,23.667,17.936ZM7.265,7a2.086,2.086,0,1,0-.053,4.16h.027A2.086,2.086,0,1,0,7.265,7ZM5.238,24.838h4V12.8h-4Z" transform="translate(-5 -7)" fill="#fff"/>
</svg>
