<svg xmlns="http://www.w3.org/2000/svg" width="20" height="20" viewBox="0 0 14.864 17.838">
  <path id="YouTube" d="M25.073,18.048h-.979l0-.569a.462.462,0,0,1,.461-.459h.062a.462.462,0,0,1,.462.459ZM21.4,16.829a.418.418,0,0,0-.451.371v2.765a.461.461,0,0,0,.9,0V17.2A.419.419,0,0,0,21.4,16.829Zm5.963-1.547v5.261a2.373,2.373,0,0,1-2.432,2.295h-10A2.373,2.373,0,0,1,12.5,20.543V15.282a2.373,2.373,0,0,1,2.432-2.295h10A2.373,2.373,0,0,1,27.364,15.282ZM15.6,21.115V15.573h1.24v-.821l-3.3,0v.807l1.032,0v5.557ZM19.315,16.4H18.282v2.959a5.245,5.245,0,0,1,0,.718c-.084.23-.462.473-.609.025a5.89,5.89,0,0,1,0-.722l0-2.98H16.636l0,2.933c0,.45-.01.785,0,.937.025.269.016.583.266.762a1.248,1.248,0,0,0,1.579-.529l0,.611h.83V16.4Zm3.306,3.389,0-2.463c0-.939-.7-1.5-1.656-.741l0-1.831-1.033,0,0,6.321.849-.012.077-.394C21.941,21.663,22.623,20.981,22.622,19.787Zm3.235-.326-.775,0c0,.031,0,.066,0,.1V20a.423.423,0,0,1-.424.42H24.5A.423.423,0,0,1,24.08,20V18.865h1.775V18.2a10.538,10.538,0,0,0-.053-1.255c-.127-.883-1.366-1.023-1.992-.571a1.166,1.166,0,0,0-.434.584A3.281,3.281,0,0,0,23.244,18v1.468C23.245,21.906,26.21,21.56,25.856,19.461Zm-3.975-7.973a.7.7,0,0,0,.249.314.72.72,0,0,0,.423.117.658.658,0,0,0,.4-.123.948.948,0,0,0,.29-.371l-.019.406h1.152V6.93h-.907v3.813a.378.378,0,0,1-.755,0V6.93h-.947v3.3c0,.421.008.7.02.844A1.434,1.434,0,0,0,21.881,11.487ZM18.39,8.72a4.077,4.077,0,0,1,.117-1.1,1.18,1.18,0,0,1,1.2-.877A1.43,1.43,0,0,1,20.4,6.9a1.144,1.144,0,0,1,.442.4,1.586,1.586,0,0,1,.213.51,4.069,4.069,0,0,1,.058.8V9.849a6.742,6.742,0,0,1-.054,1,1.59,1.59,0,0,1-.227.6,1.079,1.079,0,0,1-.444.407,1.415,1.415,0,0,1-.625.131,1.736,1.736,0,0,1-.666-.112.914.914,0,0,1-.425-.34,1.508,1.508,0,0,1-.216-.549,5.3,5.3,0,0,1-.064-.966V8.72Zm.9,1.946a.46.46,0,1,0,.915,0V8.058a.46.46,0,1,0-.915,0ZM16.1,11.984H17.19V8.226l1.284-3.219H17.287L16.6,7.4,15.912,5H14.735L16.1,8.227Z" transform="translate(-12.5 -5)" fill="#fff"/>
</svg>
